<svg xmlns="http://www.w3.org/2000/svg" viewBox="0 0 64 64" width="64" height="64" shape-rendering="geometricPrecision"><defs>
<linearGradient id="metal" x1="0" y1="0" x2="1" y2="1">
 <stop offset="0" stop-color="#9aa3ad"/><stop offset=".45" stop-color="#5b636d"/>
 <stop offset=".55" stop-color="#454c55"/><stop offset="1" stop-color="#1d2127"/>
</linearGradient>
<radialGradient id="bg" cx=".42" cy=".36" r=".75">
 <stop offset="0" stop-color="#222d63"/><stop offset="1" stop-color="#0c0f2e"/>
</radialGradient>
<radialGradient id="glow" cx=".5" cy=".42" r=".55">
 <stop offset="0" stop-color="#8aa6ff" stop-opacity=".55"/>
 <stop offset="1" stop-color="#8aa6ff" stop-opacity="0"/>
</radialGradient>
<filter id="sh" x="-30%" y="-30%" width="160%" height="160%">
 <feDropShadow dx="0" dy="1.2" stdDeviation="1" flood-color="#000" flood-opacity=".55"/>
</filter>
</defs>
<rect x="1.5" y="1.5" width="61" height="61" rx="11" fill="url(#metal)" stroke="#10131a" stroke-width="1.5"/>
<rect x="5.5" y="5.5" width="53" height="53" rx="8" fill="url(#bg)" stroke="#5b6dd6" stroke-width="1.4"/>
<rect x="5.5" y="5.5" width="53" height="53" rx="8" fill="url(#glow)"/>
<rect x="6.5" y="6.5" width="51" height="51" rx="7" fill="none" stroke="#ffffff" stroke-width="0.7" opacity="0.10"/><g filter="url(#sh)"><circle cx="32" cy="30" r="6" fill="#bcb0ff" opacity=".5"/><circle cx="32" cy="30" r="3.2" fill="#eae0ff" /><circle cx="39" cy="36" r="2" fill="#bcb0ff" opacity=".7"/><circle cx="26" cy="38" r="1.6" fill="#bcb0ff" opacity=".7"/><circle cx="41" cy="26" r="1.4" fill="#bcb0ff" opacity=".7"/><circle cx="24" cy="28" r="1.3" fill="#bcb0ff" opacity=".7"/><path d="M32 35 Q36 42 32 46" fill="none" stroke="#bcb0ff" stroke-width="1.6" opacity=".6"/></g></svg>