<svg xmlns="http://www.w3.org/2000/svg" viewBox="0 0 64 64" width="64" height="64" shape-rendering="geometricPrecision"><defs>
<linearGradient id="metal" x1="0" y1="0" x2="1" y2="1">
 <stop offset="0" stop-color="#9aa3ad"/><stop offset=".45" stop-color="#5b636d"/>
 <stop offset=".55" stop-color="#454c55"/><stop offset="1" stop-color="#1d2127"/>
</linearGradient>
<radialGradient id="bg" cx=".42" cy=".36" r=".75">
 <stop offset="0" stop-color="#222d63"/><stop offset="1" stop-color="#0c0f2e"/>
</radialGradient>
<radialGradient id="glow" cx=".5" cy=".42" r=".55">
 <stop offset="0" stop-color="#8aa6ff" stop-opacity=".55"/>
 <stop offset="1" stop-color="#8aa6ff" stop-opacity="0"/>
</radialGradient>
<filter id="sh" x="-30%" y="-30%" width="160%" height="160%">
 <feDropShadow dx="0" dy="1.2" stdDeviation="1" flood-color="#000" flood-opacity=".55"/>
</filter>
</defs>
<rect x="1.5" y="1.5" width="61" height="61" rx="11" fill="url(#metal)" stroke="#10131a" stroke-width="1.5"/>
<rect x="5.5" y="5.5" width="53" height="53" rx="8" fill="url(#bg)" stroke="#5b6dd6" stroke-width="1.4"/>
<rect x="5.5" y="5.5" width="53" height="53" rx="8" fill="url(#glow)"/>
<rect x="6.5" y="6.5" width="51" height="51" rx="7" fill="none" stroke="#ffffff" stroke-width="0.7" opacity="0.10"/><g filter="url(#sh)"><polygon points="32.0,16.0 37.0,34.0 34.0,44.0 30.0,44.0 27.0,34.0" fill="#9fe6ff" stroke="#1d5b78" stroke-width="1.2" stroke-linejoin="round"/><line x1="32" y1="19" x2="32" y2="42" stroke="#e6fbff" stroke-width="1.2" stroke-linecap="round" opacity="0.8"/></g><circle cx="47" cy="47" r="8.5" fill="#11151c" opacity=".55"/><circle cx="47" cy="47" r="8.5" fill="none" stroke="#ffffff" stroke-width="0.6" opacity=".25"/><g transform="rotate(0 47 47)"><line x1="47" y1="41.12" x2="47" y2="52.88" stroke="#bfeeff" stroke-width="2" stroke-linecap="round" /><line x1="47" y1="41.12" x2="44" y2="42.8" stroke="#bfeeff" stroke-width="1.4" stroke-linecap="round" /><line x1="47" y1="41.12" x2="50" y2="42.8" stroke="#bfeeff" stroke-width="1.4" stroke-linecap="round" /><line x1="47" y1="52.88" x2="44" y2="51.2" stroke="#bfeeff" stroke-width="1.4" stroke-linecap="round" /><line x1="47" y1="52.88" x2="50" y2="51.2" stroke="#bfeeff" stroke-width="1.4" stroke-linecap="round" /></g><g transform="rotate(60 47 47)"><line x1="47" y1="41.12" x2="47" y2="52.88" stroke="#bfeeff" stroke-width="2" stroke-linecap="round" /><line x1="47" y1="41.12" x2="44" y2="42.8" stroke="#bfeeff" stroke-width="1.4" stroke-linecap="round" /><line x1="47" y1="41.12" x2="50" y2="42.8" stroke="#bfeeff" stroke-width="1.4" stroke-linecap="round" /><line x1="47" y1="52.88" x2="44" y2="51.2" stroke="#bfeeff" stroke-width="1.4" stroke-linecap="round" /><line x1="47" y1="52.88" x2="50" y2="51.2" stroke="#bfeeff" stroke-width="1.4" stroke-linecap="round" /></g><g transform="rotate(120 47 47)"><line x1="47" y1="41.12" x2="47" y2="52.88" stroke="#bfeeff" stroke-width="2" stroke-linecap="round" /><line x1="47" y1="41.12" x2="44" y2="42.8" stroke="#bfeeff" stroke-width="1.4" stroke-linecap="round" /><line x1="47" y1="41.12" x2="50" y2="42.8" stroke="#bfeeff" stroke-width="1.4" stroke-linecap="round" /><line x1="47" y1="52.88" x2="44" y2="51.2" stroke="#bfeeff" stroke-width="1.4" stroke-linecap="round" /><line x1="47" y1="52.88" x2="50" y2="51.2" stroke="#bfeeff" stroke-width="1.4" stroke-linecap="round" /></g><circle cx="47" cy="47" r="2" fill="#eafaff" /></svg>