<svg xmlns="http://www.w3.org/2000/svg" viewBox="0 0 64 64" width="64" height="64" shape-rendering="geometricPrecision"><defs><filter id="s" x="-20%" y="-20%" width="140%" height="140%"><feDropShadow dx="0" dy="0.8" stdDeviation="0.7" flood-color="#000" flood-opacity="0.45"/></filter></defs><g filter="url(#s)"><path d="M22 30 Q15 32 19 40" fill="none" stroke="#5a626c" stroke-width="2"/><path d="M42 30 Q49 32 45 40" fill="none" stroke="#5a626c" stroke-width="2"/><circle cx="32" cy="37" r="12" fill="#f0c9c5" stroke="#5a626c" stroke-width="1.3" opacity=".55"/><path d="M27 26 L27 20 L37 20 L37 26 Z" fill="#f0c9c5" stroke="#5a626c" stroke-width="1.2" opacity=".55"/><path d="M20.8 31 A12 12 0 0 0 43.2 31 A12 12 0 0 0 20.8 31 Z" fill="#e8413f" opacity=".95"/><rect x="28" y="24" width="8" height="4" rx="0" fill="#e8413f" opacity=".9"/><circle cx="32" cy="37" r="12" fill="none" stroke="#5a626c" stroke-width="1.3"/><path d="M24 33 Q22 39 25 44" fill="none" stroke="#ffffff" stroke-width="2" stroke-linecap="round" opacity=".5"/><circle cx="35" cy="39" r="1.6" fill="#ff9a8a" opacity=".8"/><rect x="27.5" y="13" width="9" height="6" rx="1.5" fill="#a9744a" stroke="#5a3a20" stroke-width="1"/><rect x="28.5" y="11.2" width="7" height="2.6" rx="1" fill="#caa46a" /><rect x="26.5" y="18" width="11" height="2.4" rx="1" fill="#ffce5c" stroke="#7a5600" stroke-width="0.6"/><polygon points="32.0,8.0 35.0,11.0 32.0,14.0 29.0,11.0" fill="#ffce5c" stroke="#7a5600" stroke-width="0.7"/><polygon points="32.0,8.0 33.6,10.0 32.0,11.0" fill="#fff0b0" /><path d="M45 17.8 L45.704 19.296 L47.2 20 L45.704 20.704 L45 22.2 L44.296 20.704 L42.8 20 L44.296 19.296 Z" fill="#fff7d6" opacity=".95"/></g></svg>