<svg xmlns="http://www.w3.org/2000/svg" viewBox="0 0 64 64" width="64" height="64" shape-rendering="geometricPrecision"><defs>
<linearGradient id="metal" x1="0" y1="0" x2="1" y2="1">
 <stop offset="0" stop-color="#9aa3ad"/><stop offset=".45" stop-color="#5b636d"/>
 <stop offset=".55" stop-color="#454c55"/><stop offset="1" stop-color="#1d2127"/>
</linearGradient>
<radialGradient id="bg" cx=".42" cy=".36" r=".75">
 <stop offset="0" stop-color="#5d1717"/><stop offset="1" stop-color="#260909"/>
</radialGradient>
<radialGradient id="glow" cx=".5" cy=".42" r=".55">
 <stop offset="0" stop-color="#ff7a66" stop-opacity=".55"/>
 <stop offset="1" stop-color="#ff7a66" stop-opacity="0"/>
</radialGradient>
<filter id="sh" x="-30%" y="-30%" width="160%" height="160%">
 <feDropShadow dx="0" dy="1.2" stdDeviation="1" flood-color="#000" flood-opacity=".55"/>
</filter>
</defs>
<rect x="1.5" y="1.5" width="61" height="61" rx="11" fill="url(#metal)" stroke="#10131a" stroke-width="1.5"/>
<rect x="5.5" y="5.5" width="53" height="53" rx="8" fill="url(#bg)" stroke="#c0392b" stroke-width="1.4"/>
<rect x="5.5" y="5.5" width="53" height="53" rx="8" fill="url(#glow)"/>
<rect x="6.5" y="6.5" width="51" height="51" rx="7" fill="none" stroke="#ffffff" stroke-width="0.7" opacity="0.10"/><g filter="url(#sh)"><line x1="24" y1="16" x2="24" y2="48" stroke="#caa46a" stroke-width="2" stroke-linecap="round" /><path d="M24 17 L44 17 L40 25 L44 33 L24 33 Z" fill="#c0392b" stroke="#5a0e0e" stroke-width="1" stroke-linejoin="round"/><circle cx="24" cy="16" r="1.8" fill="#ffce5c" stroke="#7a5600" stroke-width="0.8"/><path d="M32 20 l2 4 l4 .5 l-3 3 l1 4 l-4 -2 l-4 2 l1 -4 l-3 -3 l4 -.5 z" fill="#ffce5c" /></g><circle cx="47" cy="47" r="8.5" fill="#11151c" opacity=".55"/><circle cx="47" cy="47" r="8.5" fill="none" stroke="#ffffff" stroke-width="0.6" opacity=".25"/><polygon points="47.0,41.0 48.6,44.8 52.7,45.1 49.6,47.8 50.5,51.9 47.0,49.7 43.5,51.9 44.4,47.8 41.3,45.1 45.4,44.8" fill="#ffce5c" stroke="#7a5600" stroke-width="0.8" stroke-linejoin="round"/></svg>