<svg xmlns="http://www.w3.org/2000/svg" viewBox="0 0 64 64" width="64" height="64" shape-rendering="geometricPrecision"><defs>
<linearGradient id="metal" x1="0" y1="0" x2="1" y2="1">
 <stop offset="0" stop-color="#9aa3ad"/><stop offset=".45" stop-color="#5b636d"/>
 <stop offset=".55" stop-color="#454c55"/><stop offset="1" stop-color="#1d2127"/>
</linearGradient>
<radialGradient id="bg" cx=".42" cy=".36" r=".75">
 <stop offset="0" stop-color="#5d1717"/><stop offset="1" stop-color="#260909"/>
</radialGradient>
<radialGradient id="glow" cx=".5" cy=".42" r=".55">
 <stop offset="0" stop-color="#ff7a66" stop-opacity=".55"/>
 <stop offset="1" stop-color="#ff7a66" stop-opacity="0"/>
</radialGradient>
<filter id="sh" x="-30%" y="-30%" width="160%" height="160%">
 <feDropShadow dx="0" dy="1.2" stdDeviation="1" flood-color="#000" flood-opacity=".55"/>
</filter>
</defs>
<rect x="1.5" y="1.5" width="61" height="61" rx="11" fill="url(#metal)" stroke="#10131a" stroke-width="1.5"/>
<rect x="5.5" y="5.5" width="53" height="53" rx="8" fill="url(#bg)" stroke="#c0392b" stroke-width="1.4"/>
<rect x="5.5" y="5.5" width="53" height="53" rx="8" fill="url(#glow)"/>
<rect x="6.5" y="6.5" width="51" height="51" rx="7" fill="none" stroke="#ffffff" stroke-width="0.7" opacity="0.10"/><g filter="url(#sh)"><path d="M17 24 Q38 18 42 26 Q44 32 36 29" fill="none" stroke="#d8f5e6" stroke-width="2.6" stroke-linecap="round"/><path d="M17 33 Q42 28 46 37 Q47 43 38 40" fill="none" stroke="#d8f5e6" stroke-width="2.6" stroke-linecap="round"/><path d="M19 41 Q32 39 38 42" fill="none" stroke="#d8f5e6" stroke-width="2.2" stroke-linecap="round" opacity="0.8"/><circle cx="32" cy="46" r="8.5" fill="#11151c" opacity=".55"/><circle cx="32" cy="46" r="8.5" fill="none" stroke="#ffffff" stroke-width="0.6" opacity=".25"/><line x1="27" y1="46" x2="37" y2="46" stroke="#7CFC9A" stroke-width="2.4" stroke-linecap="round" /><line x1="32" y1="41" x2="32" y2="51" stroke="#7CFC9A" stroke-width="2.4" stroke-linecap="round" /></g><circle cx="47" cy="47" r="8.5" fill="#11151c" opacity=".55"/><circle cx="47" cy="47" r="8.5" fill="none" stroke="#ffffff" stroke-width="0.6" opacity=".25"/><line x1="42" y1="47" x2="52" y2="47" stroke="#7CFC9A" stroke-width="2.4" stroke-linecap="round" /><line x1="47" y1="42" x2="47" y2="52" stroke="#7CFC9A" stroke-width="2.4" stroke-linecap="round" /></svg>