<svg xmlns="http://www.w3.org/2000/svg" viewBox="0 0 64 64" width="64" height="64" shape-rendering="geometricPrecision"><defs>
<linearGradient id="metal" x1="0" y1="0" x2="1" y2="1">
 <stop offset="0" stop-color="#9aa3ad"/><stop offset=".45" stop-color="#5b636d"/>
 <stop offset=".55" stop-color="#454c55"/><stop offset="1" stop-color="#1d2127"/>
</linearGradient>
<radialGradient id="bg" cx=".42" cy=".36" r=".75">
 <stop offset="0" stop-color="#5d1717"/><stop offset="1" stop-color="#260909"/>
</radialGradient>
<radialGradient id="glow" cx=".5" cy=".42" r=".55">
 <stop offset="0" stop-color="#ff7a66" stop-opacity=".55"/>
 <stop offset="1" stop-color="#ff7a66" stop-opacity="0"/>
</radialGradient>
<filter id="sh" x="-30%" y="-30%" width="160%" height="160%">
 <feDropShadow dx="0" dy="1.2" stdDeviation="1" flood-color="#000" flood-opacity=".55"/>
</filter>
</defs>
<rect x="1.5" y="1.5" width="61" height="61" rx="11" fill="url(#metal)" stroke="#10131a" stroke-width="1.5"/>
<rect x="5.5" y="5.5" width="53" height="53" rx="8" fill="url(#bg)" stroke="#c0392b" stroke-width="1.4"/>
<rect x="5.5" y="5.5" width="53" height="53" rx="8" fill="url(#glow)"/>
<rect x="6.5" y="6.5" width="51" height="51" rx="7" fill="none" stroke="#ffffff" stroke-width="0.7" opacity="0.10"/><g filter="url(#sh)"><g transform="rotate(130 34 30)"><polygon points="34.0,10.0 36.0,15.0 36.0,38.0 32.0,38.0 32.0,15.0" fill="#dfe6ef" stroke="#3a4350" stroke-width="1.2" stroke-linejoin="round"/><line x1="34" y1="14" x2="34" y2="36.0" stroke="#ffffff" stroke-width="1" stroke-linecap="round" /><polygon points="27.0,38.0 41.0,38.0 40.0,40.6 28.0,40.6" fill="#ffce5c" stroke="#7a5600" stroke-width="1"/><line x1="34" y1="40.6" x2="34" y2="46.0" stroke="#7a4a22" stroke-width="2.6" stroke-linecap="round" /><circle cx="34" cy="47.5" r="2" fill="#ffce5c" stroke="#7a5600" stroke-width="1"/></g><line x1="18" y1="42" x2="24" y2="36" stroke="#ffce5c" stroke-width="2" stroke-linecap="round" opacity=".7"/></g></svg>