<svg xmlns="http://www.w3.org/2000/svg" viewBox="0 0 64 64" width="64" height="64" shape-rendering="geometricPrecision"><defs>
<linearGradient id="metal" x1="0" y1="0" x2="1" y2="1">
 <stop offset="0" stop-color="#9aa3ad"/><stop offset=".45" stop-color="#5b636d"/>
 <stop offset=".55" stop-color="#454c55"/><stop offset="1" stop-color="#1d2127"/>
</linearGradient>
<radialGradient id="bg" cx=".42" cy=".36" r=".75">
 <stop offset="0" stop-color="#184a23"/><stop offset="1" stop-color="#08210f"/>
</radialGradient>
<radialGradient id="glow" cx=".5" cy=".42" r=".55">
 <stop offset="0" stop-color="#8ff58a" stop-opacity=".55"/>
 <stop offset="1" stop-color="#8ff58a" stop-opacity="0"/>
</radialGradient>
<filter id="sh" x="-30%" y="-30%" width="160%" height="160%">
 <feDropShadow dx="0" dy="1.2" stdDeviation="1" flood-color="#000" flood-opacity=".55"/>
</filter>
</defs>
<rect x="1.5" y="1.5" width="61" height="61" rx="11" fill="url(#metal)" stroke="#10131a" stroke-width="1.5"/>
<rect x="5.5" y="5.5" width="53" height="53" rx="8" fill="url(#bg)" stroke="#27ae60" stroke-width="1.4"/>
<rect x="5.5" y="5.5" width="53" height="53" rx="8" fill="url(#glow)"/>
<rect x="6.5" y="6.5" width="51" height="51" rx="7" fill="none" stroke="#ffffff" stroke-width="0.7" opacity="0.10"/><g filter="url(#sh)"><path d="M25 20 L31 20 L31 36 L42 36 L42 42 L25 42 Z" fill="#d8c08a" stroke="#5a4416" stroke-width="1.2" stroke-linejoin="round"/></g><circle cx="47" cy="47" r="8.5" fill="#11151c" opacity=".55"/><circle cx="47" cy="47" r="8.5" fill="none" stroke="#ffffff" stroke-width="0.6" opacity=".25"/><path d="M42 50 L47 43 L52 50" fill="none" stroke="#7CFC9A" stroke-width="2.2" stroke-linecap="round" stroke-linejoin="round"/></svg>