<svg xmlns="http://www.w3.org/2000/svg" viewBox="0 0 64 64" width="64" height="64" shape-rendering="geometricPrecision"><defs><filter id="s" x="-20%" y="-20%" width="140%" height="140%"><feDropShadow dx="0" dy="0.8" stdDeviation="0.7" flood-color="#000" flood-opacity="0.45"/></filter></defs><g filter="url(#s)"><g transform="rotate(-42 32 32)"><polygon points="32.0,13.0 35.0,20.0 33.0,36.0 31.0,36.0 29.0,20.0" fill="#6f747d" stroke="#2c3036" stroke-width="1.2" stroke-linejoin="round"/><line x1="32" y1="16" x2="32" y2="34" stroke="#a2a8b2" stroke-width="1" stroke-linecap="round" opacity=".7"/><polygon points="25.0,36.0 39.0,36.0 38.0,39.0 26.0,39.0" fill="#aeb8c4" stroke="#2c3036" stroke-width="1"/><line x1="32" y1="39" x2="32" y2="48" stroke="#5a3a20" stroke-width="2.6" stroke-linecap="round" /><polygon points="32.0,47.4 34.6,50.0 32.0,52.6 29.4,50.0" fill="#aeb8c4" stroke="#2c3036" stroke-width="0.8" stroke-linejoin="round"/><polygon points="32.0,47.4 33.3,49.5 32.0,50.0" fill="#ffffff" opacity=".8"/></g></g><path d="M16 15.6 L16.768 17.232 L18.4 18 L16.768 18.768 L16 20.4 L15.232 18.768 L13.6 18 L15.232 17.232 Z" fill="#fff7d6" opacity=".9"/><path d="M48 18.2 L48.576 19.424 L49.8 20 L48.576 20.576 L48 21.8 L47.424 20.576 L46.2 20 L47.424 19.424 Z" fill="#fff7d6" opacity=".9"/><path d="M46 43.8 L46.704 45.296 L48.2 46 L46.704 46.704 L46 48.2 L45.296 46.704 L43.8 46 L45.296 45.296 Z" fill="#fff7d6" opacity=".9"/><path d="M18 42.4 L18.512 43.488 L19.6 44 L18.512 44.512 L18 45.6 L17.488 44.512 L16.4 44 L17.488 43.488 Z" fill="#fff7d6" opacity=".9"/></svg>